<svg width="200" height="240" viewBox="0 0 200 240" fill="none" xmlns="http://www.w3.org/2000/svg">
  <!-- Shield background -->
  <path d="M100 20L180 40V140C180 160 160 180 100 220C40 180 20 160 20 140V40L100 20Z" fill="#DAA520"/>
  
  <!-- Central Sankofa symbol in dark blue -->
  <g fill="#2D3748">
    <!-- Curved top (bird's neck) -->
    <path d="M100 50C120 50 140 70 140 90C140 95 135 100 130 100C125 100 120 95 120 90C120 80 110 70 100 70C90 70 80 80 80 90C80 95 75 100 70 100C65 100 60 95 60 90C60 70 80 50 100 50Z"/>
    
    <!-- Vertical body with horizontal lines -->
    <rect x="95" y="100" width="10" height="80" fill="#2D3748"/>
    
    <!-- Horizontal lines (representing steps/levels) -->
    <rect x="75" y="110" width="50" height="6"/>
    <rect x="80" y="125" width="40" height="6"/>
    <rect x="75" y="140" width="50" height="6"/>
    <rect x="80" y="155" width="40" height="6"/>
    <rect x="75" y="170" width="50" height="6"/>
  </g>
  
  <!-- Banner at bottom -->
  <path d="M30 190L170 190C175 190 180 195 180 200L170 210L30 210C25 210 20 205 20 200C20 195 25 190 30 190Z" fill="#DAA520"/>
  
  <!-- Motto text -->
  <text x="100" y="205" text-anchor="middle" fill="#2D3748" font-family="Arial" font-size="9" font-weight="bold">Scholarship with Professionalism</text>
</svg>
